<svg xmlns="http://www.w3.org/2000/svg" width="800" height="200" viewBox="0 0 800 200">
  <defs>
    <linearGradient id="g1" x1="0%" y1="0%" x2="100%" y2="100%"><stop offset="0%" stop-color="#2563eb"/><stop offset="100%" stop-color="#3b82f6"/></linearGradient>
    <linearGradient id="g2" x1="0%" y1="0%" x2="100%" y2="100%"><stop offset="0%" stop-color="#7c3aed"/><stop offset="100%" stop-color="#8b5cf6"/></linearGradient>
    <linearGradient id="g3" x1="0%" y1="0%" x2="100%" y2="100%"><stop offset="0%" stop-color="#0d9488"/><stop offset="100%" stop-color="#14b8a6"/></linearGradient>
  </defs>
  <rect x="80" y="30" width="180" height="120" rx="16" fill="url(#g1)"/>
  <text x="170" y="78" text-anchor="middle" fill="#fff" font-family="sans-serif" font-size="28" font-weight="800">学</text>
  <text x="170" y="108" text-anchor="middle" fill="#fff" font-family="sans-serif" font-size="14" opacity="0.9">AI能力感知</text>
  <text x="170" y="130" text-anchor="middle" fill="#fff" font-family="sans-serif" font-size="11" opacity="0.7">Learn</text>
  <rect x="310" y="30" width="180" height="120" rx="16" fill="url(#g2)"/>
  <text x="400" y="78" text-anchor="middle" fill="#fff" font-family="sans-serif" font-size="28" font-weight="800">练</text>
  <text x="400" y="108" text-anchor="middle" fill="#fff" font-family="sans-serif" font-size="14" opacity="0.9">真实任务验证</text>
  <text x="400" y="130" text-anchor="middle" fill="#fff" font-family="sans-serif" font-size="11" opacity="0.7">Practice</text>
  <rect x="540" y="30" width="180" height="120" rx="16" fill="url(#g3)"/>
  <text x="630" y="78" text-anchor="middle" fill="#fff" font-family="sans-serif" font-size="28" font-weight="800">就</text>
  <text x="630" y="108" text-anchor="middle" fill="#fff" font-family="sans-serif" font-size="14" opacity="0.9">信用护照</text>
  <text x="630" y="130" text-anchor="middle" fill="#fff" font-family="sans-serif" font-size="11" opacity="0.7">Achieve</text>
  <path d="M265 90 L305 90" stroke="#94a3b8" stroke-width="2.5" stroke-dasharray="6,4"/>
  <polygon points="300,85 312,90 300,95" fill="#94a3b8"/>
  <path d="M495 90 L535 90" stroke="#94a3b8" stroke-width="2.5" stroke-dasharray="6,4"/>
  <polygon points="530,85 542,90 530,95" fill="#94a3b8"/>
  <text x="400" y="185" text-anchor="middle" fill="#475569" font-family="sans-serif" font-size="13" font-weight="500">让能力取代学历，成为就业市场的新信号</text>
</svg>