<svg xmlns="http://www.w3.org/2000/svg" width="960" height="420" viewBox="0 0 960 420">
  <defs><linearGradient id="qg" x1="0%" y1="0%" x2="100%" y2="0%"><stop offset="0%" stop-color="#2563eb" stop-opacity="0.08"/><stop offset="100%" stop-color="#7c3aed" stop-opacity="0.04"/></linearGradient></defs>
  <rect x="20" y="20" width="450" height="80" rx="12" fill="url(#qg)" stroke="#2563eb" stroke-width="1.2"/>
  <circle cx="60" cy="60" r="22" fill="#2563eb"/><text x="60" y="66" text-anchor="middle" fill="#fff" font-family="sans-serif" font-size="14" font-weight="700">Q1</text>
  <text x="95" y="50" fill="#0f172a" font-family="sans-serif" font-size="15" font-weight="600">就业率与就业质量如何保障？</text>
  <text x="95" y="72" fill="#64748b" font-family="sans-serif" font-size="12">考核指标 · 学校声誉 · 招生生源</text>
  <rect x="490" y="20" width="450" height="80" rx="12" fill="url(#qg)" stroke="#7c3aed" stroke-width="1.2"/>
  <circle cx="530" cy="60" r="22" fill="#7c3aed"/><text x="530" y="66" text-anchor="middle" fill="#fff" font-family="sans-serif" font-size="14" font-weight="700">Q2</text>
  <text x="565" y="50" fill="#0f172a" font-family="sans-serif" font-size="15" font-weight="600">专业设置与课程如何快速响应AI时代？</text>
  <text x="565" y="72" fill="#64748b" font-family="sans-serif" font-size="12">课程更新周期5-10年 vs 技能半衰期2年</text>
  <rect x="20" y="115" width="450" height="80" rx="12" fill="url(#qg)" stroke="#0d9488" stroke-width="1.2"/>
  <circle cx="60" cy="155" r="22" fill="#0d9488"/><text x="60" y="161" text-anchor="middle" fill="#fff" font-family="sans-serif" font-size="14" font-weight="700">Q3</text>
  <text x="95" y="145" fill="#0f172a" font-family="sans-serif" font-size="15" font-weight="600">产教融合如何真正落地？</text>
  <text x="95" y="167" fill="#64748b" font-family="sans-serif" font-size="12">校企合作"两张皮" · 流于形式</text>
  <rect x="490" y="115" width="450" height="80" rx="12" fill="url(#qg)" stroke="#d97706" stroke-width="1.2"/>
  <circle cx="530" cy="155" r="22" fill="#d97706"/><text x="530" y="161" text-anchor="middle" fill="#fff" font-family="sans-serif" font-size="14" font-weight="700">Q4</text>
  <text x="565" y="145" fill="#0f172a" font-family="sans-serif" font-size="15" font-weight="600">学生能力培养如何对接市场需求？</text>
  <text x="565" y="167" fill="#64748b" font-family="sans-serif" font-size="12">"学了没用的，有用的没学"</text>
  <rect x="20" y="210" width="450" height="80" rx="12" fill="url(#qg)" stroke="#e11d48" stroke-width="1.2"/>
  <circle cx="60" cy="250" r="22" fill="#e11d48"/><text x="60" y="256" text-anchor="middle" fill="#fff" font-family="sans-serif" font-size="14" font-weight="700">Q5</text>
  <text x="95" y="240" fill="#0f172a" font-family="sans-serif" font-size="15" font-weight="600">师资队伍如何适应AI时代教学？</text>
  <text x="95" y="262" fill="#64748b" font-family="sans-serif" font-size="12">教师能力滞后 · 考核导向偏差</text>
  <rect x="490" y="210" width="450" height="80" rx="12" fill="url(#qg)" stroke="#059669" stroke-width="1.2"/>
  <circle cx="530" cy="250" r="22" fill="#059669"/><text x="530" y="256" text-anchor="middle" fill="#fff" font-family="sans-serif" font-size="14" font-weight="700">Q6</text>
  <text x="565" y="240" fill="#0f172a" font-family="sans-serif" font-size="15" font-weight="600">学校如何形成差异化竞争优势？</text>
  <text x="565" y="262" fill="#64748b" font-family="sans-serif" font-size="12">同质化竞争 · 特色不鲜明</text>
  <rect x="255" y="305" width="450" height="80" rx="12" fill="url(#qg)" stroke="#1e3a5f" stroke-width="2"/>
  <circle cx="295" cy="345" r="22" fill="#1e3a5f"/><text x="295" y="351" text-anchor="middle" fill="#fff" font-family="sans-serif" font-size="14" font-weight="700">Q7</text>
  <text x="330" y="335" fill="#0f172a" font-family="sans-serif" font-size="15" font-weight="600">投入新项目的风险与收益如何？</text>
  <text x="330" y="357" fill="#64748b" font-family="sans-serif" font-size="12">决策风险 · 资源有限 · 政绩考量</text>
  <text x="480" y="410" text-anchor="middle" fill="#94a3b8" font-family="sans-serif" font-size="12">这7个问题不是孤立的，而是相互关联的系统挑战 → 我们用一套方案，系统性地回答</text>
</svg>