<svg xmlns="http://www.w3.org/2000/svg" width="900" height="380" viewBox="0 0 900 380">
  <defs><marker id="ab" markerWidth="10" markerHeight="10" refX="9" refY="3" orient="auto"><path d="M0,0 L0,6 L9,3 z" fill="#2563eb"/></marker></defs>
  <circle cx="450" cy="190" r="65" fill="#0f172a"/>
  <text x="450" y="183" text-anchor="middle" fill="#fff" font-family="sans-serif" font-size="18" font-weight="700">学校</text>
  <text x="450" y="205" text-anchor="middle" fill="#94a3b8" font-family="sans-serif" font-size="12">培养体系</text>
  <rect x="50" y="140" width="140" height="90" rx="12" fill="#eff6ff" stroke="#3b82f6" stroke-width="2"/>
  <text x="120" y="172" text-anchor="middle" fill="#1e40af" font-family="sans-serif" font-size="14" font-weight="600">在校学生</text>
  <text x="120" y="195" text-anchor="middle" fill="#64748b" font-family="sans-serif" font-size="11">能力体检·任务市场</text>
  <text x="120" y="215" text-anchor="middle" fill="#64748b" font-family="sans-serif" font-size="11">能力护照积累</text>
  <rect x="710" y="140" width="140" height="90" rx="12" fill="#f0fdf4" stroke="#22c55e" stroke-width="2"/>
  <text x="780" y="172" text-anchor="middle" fill="#166534" font-family="sans-serif" font-size="14" font-weight="600">毕业生</text>
  <text x="780" y="195" text-anchor="middle" fill="#64748b" font-family="sans-serif" font-size="11">就业状态·薪资变化</text>
  <text x="780" y="215" text-anchor="middle" fill="#64748b" font-family="sans-serif" font-size="11">职业发展轨迹</text>
  <rect x="380" y="300" width="140" height="50" rx="10" fill="#fef3c7" stroke="#f59e0b" stroke-width="2"/>
  <text x="450" y="330" text-anchor="middle" fill="#92400e" font-family="sans-serif" font-size="14" font-weight="600">合作企业</text>
  <path d="M195 185 Q300 130 385 185" stroke="#2563eb" stroke-width="2" fill="none" marker-end="url(#ab)"/>
  <text x="290" y="145" text-anchor="middle" fill="#2563eb" font-family="sans-serif" font-size="10" font-weight="500">培养数据</text>
  <path d="M515 185 Q620 130 705 185" stroke="#22c55e" stroke-width="2" fill="none"/>
  <polygon points="700,180 712,185 700,190" fill="#22c55e"/>
  <text x="615" y="145" text-anchor="middle" fill="#22c55e" font-family="sans-serif" font-size="10" font-weight="500">能力护照</text>
  <path d="M705 230 Q620 280 525 325" stroke="#f59e0b" stroke-width="2" fill="none"/>
  <polygon points="530,320 518,325 530,330" fill="#f59e0b"/>
  <text x="620" y="290" text-anchor="middle" fill="#f59e0b" font-family="sans-serif" font-size="10" font-weight="500">就业反馈</text>
  <path d="M375 325 Q280 340 195 230" stroke="#7c3aed" stroke-width="2" fill="none"/>
  <polygon points="198,235 188,225 185,238" fill="#7c3aed"/>
  <text x="270" y="340" text-anchor="middle" fill="#7c3aed" font-family="sans-serif" font-size="10" font-weight="500">课程优化建议</text>
  <rect x="375" y="20" width="150" height="30" rx="15" fill="#7c3aed"/>
  <text x="450" y="40" text-anchor="middle" fill="#fff" font-family="sans-serif" font-size="12" font-weight="600">闭环反馈系统</text>
</svg>