<svg xmlns="http://www.w3.org/2000/svg" width="900" height="300" viewBox="0 0 900 300">
  <text x="450" y="35" text-anchor="middle" fill="#0f172a" font-family="sans-serif" font-size="16" font-weight="700">自适应学习循环：不是"改课程"，而是"补课程"</text>
  <rect x="40" y="80" width="170" height="120" rx="14" fill="#eff6ff" stroke="#3b82f6" stroke-width="2"/>
  <text x="125" y="120" text-anchor="middle" fill="#1e40af" font-family="sans-serif" font-size="15" font-weight="700">任务执行</text>
  <text x="125" y="145" text-anchor="middle" fill="#64748b" font-family="sans-serif" font-size="11">发现能力缺口</text>
  <text x="125" y="165" text-anchor="middle" fill="#64748b" font-family="sans-serif" font-size="11">获取真实反馈</text>
  <path d="M215 140 L265 140" stroke="#2563eb" stroke-width="2.5"/>
  <polygon points="260,134 273,140 260,146" fill="#2563eb"/>
  <rect x="275" y="80" width="170" height="120" rx="14" fill="#f0fdf4" stroke="#22c55e" stroke-width="2"/>
  <text x="360" y="120" text-anchor="middle" fill="#166534" font-family="sans-serif" font-size="15" font-weight="700">AI诊断</text>
  <text x="360" y="145" text-anchor="middle" fill="#64748b" font-family="sans-serif" font-size="11">精准定位短板</text>
  <text x="360" y="165" text-anchor="middle" fill="#64748b" font-family="sans-serif" font-size="11">生成缺口报告</text>
  <path d="M450 140 L500 140" stroke="#22c55e" stroke-width="2.5"/>
  <polygon points="495,134 508,140 495,146" fill="#22c55e"/>
  <rect x="510" y="80" width="170" height="120" rx="14" fill="#fef3c7" stroke="#f59e0b" stroke-width="2"/>
  <text x="595" y="120" text-anchor="middle" fill="#92400e" font-family="sans-serif" font-size="15" font-weight="700">智能推荐</text>
  <text x="595" y="145" text-anchor="middle" fill="#64748b" font-family="sans-serif" font-size="11">匹配学习资源</text>
  <text x="595" y="165" text-anchor="middle" fill="#64748b" font-family="sans-serif" font-size="11">个性化学习路径</text>
  <path d="M680 140 L730 140" stroke="#f59e0b" stroke-width="2.5"/>
  <polygon points="725,134 738,140 725,146" fill="#f59e0b"/>
  <rect x="740" y="80" width="120" height="120" rx="14" fill="#ede9fe" stroke="#7c3aed" stroke-width="2"/>
  <text x="800" y="120" text-anchor="middle" fill="#6d28d9" font-family="sans-serif" font-size="15" font-weight="700">能力提升</text>
  <text x="800" y="145" text-anchor="middle" fill="#64748b" font-family="sans-serif" font-size="11">验证通过</text>
  <text x="800" y="165" text-anchor="middle" fill="#64748b" font-family="sans-serif" font-size="11">接受更难任务</text>
  <!-- 循环箭头 -->
  <path d="M800 205 Q800 260 125 260 Q40 260 40 205" stroke="#7c3aed" stroke-width="2" fill="none" stroke-dasharray="6,4"/>
  <polygon points="44,210 40,200 50,208" fill="#7c3aed"/>
  <text x="450" y="255" text-anchor="middle" fill="#7c3aed" font-family="sans-serif" font-size="12" font-weight="600">持续循环提升 → 每一轮能力↑ 信号↑ 机会↑</text>
  <rect x="250" y="275" width="400" height="22" rx="6" fill="#f0fdf4"/>
  <text x="450" y="290" text-anchor="middle" fill="#166534" font-family="sans-serif" font-size="11">学校收益：无需频繁修改课程体系，平台作为"动态补充层"填补市场与教学的鸿沟</text>
</svg>