<svg xmlns="http://www.w3.org/2000/svg" width="920" height="400" viewBox="0 0 920 400">
  <defs>
    <filter id="shadow" x="-4%" y="-4%" width="108%" height="112%">
      <feDropShadow dx="0" dy="2" stdDeviation="4" flood-color="#0f172a" flood-opacity="0.08"/>
    </filter>
    <filter id="shadowLg" x="-4%" y="-4%" width="108%" height="116%">
      <feDropShadow dx="0" dy="4" stdDeviation="8" flood-color="#0f172a" flood-opacity="0.12"/>
    </filter>
    <linearGradient id="gBlue" x1="0%" y1="0%" x2="100%" y2="100%">
      <stop offset="0%" stop-color="#2563eb"/><stop offset="100%" stop-color="#3b82f6"/>
    </linearGradient>
    <linearGradient id="gViolet" x1="0%" y1="0%" x2="100%" y2="100%">
      <stop offset="0%" stop-color="#7c3aed"/><stop offset="100%" stop-color="#8b5cf6"/>
    </linearGradient>
    <linearGradient id="gTeal" x1="0%" y1="0%" x2="100%" y2="100%">
      <stop offset="0%" stop-color="#0d9488"/><stop offset="100%" stop-color="#14b8a6"/>
    </linearGradient>
    <linearGradient id="gDark" x1="0%" y1="0%" x2="100%" y2="100%">
      <stop offset="0%" stop-color="#0f172a"/><stop offset="50%" stop-color="#1e3a5f"/><stop offset="100%" stop-color="#2563eb"/>
    </linearGradient>
    <linearGradient id="gLine" x1="0%" y1="0%" x2="100%" y2="0%">
      <stop offset="0%" stop-color="#94a3b8"/><stop offset="100%" stop-color="#22c55e"/>
    </linearGradient>
    <marker id="arrowB" markerWidth="8" markerHeight="8" refX="7" refY="3" orient="auto">
      <path d="M0,0 L0,6 L7,3 z" fill="#2563eb"/>
    </marker>
    <marker id="arrowG" markerWidth="8" markerHeight="8" refX="7" refY="3" orient="auto">
      <path d="M0,0 L0,6 L7,3 z" fill="#22c55e"/>
    </marker>
    <marker id="arrowV" markerWidth="8" markerHeight="8" refX="7" refY="3" orient="auto">
      <path d="M0,0 L0,6 L7,3 z" fill="#7c3aed"/>
    </marker>
    <marker id="arrowS" markerWidth="8" markerHeight="8" refX="7" refY="3" orient="auto">
      <path d="M0,0 L0,6 L7,3 z" fill="#64748b"/>
    </marker>
  </defs>
  <text x="460" y="25" text-anchor="middle" fill="#0f172a" font-family="system-ui,-apple-system,BlinkMacSystemFont,Segoe UI,sans-serif" font-size="18" font-weight="700" opacity="1">AI能力指纹示例</text>
  <rect x="20" y="40" width="400" height="340" rx="16" fill="#0f172a" filter="url(#shadowLg)"/>
  <text x="220" y="72" text-anchor="middle" fill="#ffffff" font-family="system-ui,-apple-system,BlinkMacSystemFont,Segoe UI,sans-serif" font-size="15" font-weight="600" opacity="1">能力指纹 · 张伟</text>
  <text x="220" y="92" text-anchor="middle" fill="#94a3b8" font-family="system-ui,-apple-system,BlinkMacSystemFont,Segoe UI,sans-serif" font-size="11" font-weight="400" opacity="1">数据科学专业 · 大三</text>
  <polygon points="220,330 130,240 160,140 280,140 310,240" fill="none" stroke="#334155" stroke-width="1"/>
  <polygon points="220,290 155,230 175,160 265,160 285,230" fill="none" stroke="#334155" stroke-width="1"/>
  <polygon points="220,250 180,220 190,180 250,180 260,220" fill="none" stroke="#334155" stroke-width="1"/>
  <polygon points="220,260 135,225 168,145 275,148 290,228" fill="#2563eb" fill-opacity="0.3" stroke="#3b82f6" stroke-width="2"/>
  <circle cx="220" cy="260" r="4" fill="#60a5fa"/><circle cx="135" cy="225" r="4" fill="#60a5fa"/>
  <circle cx="168" cy="145" r="4" fill="#60a5fa"/><circle cx="275" cy="148" r="4" fill="#60a5fa"/>
  <circle cx="290" cy="228" r="4" fill="#60a5fa"/>
  <text x="220" y="360" text-anchor="middle" fill="#94a3b8" font-family="system-ui,-apple-system,BlinkMacSystemFont,Segoe UI,sans-serif" font-size="11" font-weight="500" opacity="1">Python 88%</text>
  <text x="95" y="235" text-anchor="middle" fill="#94a3b8" font-family="system-ui,-apple-system,BlinkMacSystemFont,Segoe UI,sans-serif" font-size="11" font-weight="500" opacity="1">SQL 72%</text>
  <text x="135" y="125" text-anchor="middle" fill="#94a3b8" font-family="system-ui,-apple-system,BlinkMacSystemFont,Segoe UI,sans-serif" font-size="11" font-weight="500" opacity="1">可视化 68%</text>
  <text x="305" y="125" text-anchor="middle" fill="#f87171" font-family="system-ui,-apple-system,BlinkMacSystemFont,Segoe UI,sans-serif" font-size="11" font-weight="500" opacity="1">统计 42%</text>
  <text x="345" y="235" text-anchor="middle" fill="#94a3b8" font-family="system-ui,-apple-system,BlinkMacSystemFont,Segoe UI,sans-serif" font-size="11" font-weight="500" opacity="1">沟通 80%</text>
  <rect x="440" y="40" width="460" height="150" rx="12" fill="#ffffff" stroke="#e2e8f0" stroke-width="1" filter="url(#shadow)"/>
  <text x="460" y="70" text-anchor="start" fill="#0f172a" font-family="system-ui,-apple-system,BlinkMacSystemFont,Segoe UI,sans-serif" font-size="14" font-weight="700" opacity="1">AI能力叙事</text>
  <text x="460" y="95" text-anchor="start" fill="#475569" font-family="system-ui,-apple-system,BlinkMacSystemFont,Segoe UI,sans-serif" font-size="11" font-weight="400" opacity="1">&ldquo;该学生在过去6个月完成了12个数据分析相关任务，</text>
  <text x="460" y="115" text-anchor="start" fill="#475569" font-family="system-ui,-apple-system,BlinkMacSystemFont,Segoe UI,sans-serif" font-size="11" font-weight="400" opacity="1">数据处理和可视化能力突出（处于同专业前15%），</text>
  <text x="460" y="135" text-anchor="start" fill="#475569" font-family="system-ui,-apple-system,BlinkMacSystemFont,Segoe UI,sans-serif" font-size="11" font-weight="400" opacity="1">统计建模正在快速成长，商业叙事能力有提升空间...&rdquo;</text>
  <text x="460" y="170" text-anchor="start" fill="#94a3b8" font-family="system-ui,-apple-system,BlinkMacSystemFont,Segoe UI,sans-serif" font-size="10" font-weight="400" opacity="1">基于23个任务记录 + 91%雇主好评率 自动生成</text>
  <rect x="440" y="205" width="460" height="175" rx="12" fill="#ffffff" stroke="#e2e8f0" stroke-width="1" filter="url(#shadow)"/>
  <text x="460" y="235" text-anchor="start" fill="#0f172a" font-family="system-ui,-apple-system,BlinkMacSystemFont,Segoe UI,sans-serif" font-size="14" font-weight="700" opacity="1">缺口分析 & 学习推荐</text>
  <rect x="460" y="255" width="130" height="26" rx="13.0" fill="#fef3c7"/><text x="525.0" y="272.0" text-anchor="middle" fill="#92400e" font-family="system-ui,-apple-system,BlinkMacSystemFont,Segoe UI,sans-serif" font-size="11" font-weight="600">统计建模 42%</text>
  <rect x="600" y="255" width="130" height="26" rx="13.0" fill="#fef3c7"/><text x="665.0" y="272.0" text-anchor="middle" fill="#92400e" font-family="system-ui,-apple-system,BlinkMacSystemFont,Segoe UI,sans-serif" font-size="11" font-weight="600">商业分析 待测</text>
  <rect x="460" y="290" width="130" height="26" rx="13.0" fill="#dbeafe"/><text x="525.0" y="307.0" text-anchor="middle" fill="#1e40af" font-family="system-ui,-apple-system,BlinkMacSystemFont,Segoe UI,sans-serif" font-size="11" font-weight="600">推荐：统计入门</text>
  <rect x="600" y="290" width="130" height="26" rx="13.0" fill="#dbeafe"/><text x="665.0" y="307.0" text-anchor="middle" fill="#1e40af" font-family="system-ui,-apple-system,BlinkMacSystemFont,Segoe UI,sans-serif" font-size="11" font-weight="600">推荐：商业案例</text>
  <rect x="460" y="330" width="260" height="30" rx="8" fill="#f0fdf4" stroke="#22c55e" stroke-width="1"/>
  <text x="590" y="350" text-anchor="middle" fill="#166534" font-family="system-ui,-apple-system,BlinkMacSystemFont,Segoe UI,sans-serif" font-size="12" font-weight="600" opacity="1">✓ 面试邀请 3→11个（+267%）</text>
</svg>