<svg xmlns="http://www.w3.org/2000/svg" width="900" height="260" viewBox="0 0 900 260">
  <text x="450" y="30" text-anchor="middle" fill="#0f172a" font-family="sans-serif" font-size="16" font-weight="700">教师赋能系统</text>
  <rect x="30" y="60" width="180" height="160" rx="14" fill="#eff6ff" stroke="#3b82f6" stroke-width="2"/>
  <text x="120" y="90" text-anchor="middle" fill="#1e40af" font-family="sans-serif" font-size="14" font-weight="700">教师能力体检</text>
  <text x="120" y="115" text-anchor="middle" fill="#64748b" font-family="sans-serif" font-size="11">了解自身能力差距</text>
  <text x="120" y="138" text-anchor="middle" fill="#64748b" font-family="sans-serif" font-size="11">获得学习推荐</text>
  <text x="120" y="161" text-anchor="middle" fill="#64748b" font-family="sans-serif" font-size="11">参与真实任务</text>
  <text x="120" y="184" text-anchor="middle" fill="#64748b" font-family="sans-serif" font-size="11">积累项目经验</text>
  <path d="M215 140 L265 140" stroke="#2563eb" stroke-width="2.5"/>
  <polygon points="260,134 273,140 260,146" fill="#2563eb"/>
  <rect x="275" y="60" width="180" height="160" rx="14" fill="#f0fdf4" stroke="#22c55e" stroke-width="2"/>
  <text x="365" y="90" text-anchor="middle" fill="#166534" font-family="sans-serif" font-size="14" font-weight="700">市场需求数据</text>
  <text x="365" y="115" text-anchor="middle" fill="#64748b" font-family="sans-serif" font-size="11">能力需求排行</text>
  <text x="365" y="138" text-anchor="middle" fill="#64748b" font-family="sans-serif" font-size="11">薪资趋势分析</text>
  <text x="365" y="161" text-anchor="middle" fill="#64748b" font-family="sans-serif" font-size="11">岗位变化追踪</text>
  <text x="365" y="184" text-anchor="middle" fill="#64748b" font-family="sans-serif" font-size="11">课程优化建议</text>
  <path d="M460 140 L510 140" stroke="#22c55e" stroke-width="2.5"/>
  <polygon points="505,134 518,140 505,146" fill="#22c55e"/>
  <rect x="520" y="60" width="180" height="160" rx="14" fill="#fef3c7" stroke="#f59e0b" stroke-width="2"/>
  <text x="610" y="90" text-anchor="middle" fill="#92400e" font-family="sans-serif" font-size="14" font-weight="700">教学改进</text>
  <text x="610" y="115" text-anchor="middle" fill="#64748b" font-family="sans-serif" font-size="11">数据驱动课程调整</text>
  <text x="610" y="138" text-anchor="middle" fill="#64748b" font-family="sans-serif" font-size="11">引入真实案例</text>
  <text x="610" y="161" text-anchor="middle" fill="#64748b" font-family="sans-serif" font-size="11">设计实践项目</text>
  <text x="610" y="184" text-anchor="middle" fill="#64748b" font-family="sans-serif" font-size="11">提升教学实效</text>
  <path d="M705 140 L755 140" stroke="#f59e0b" stroke-width="2.5"/>
  <polygon points="750,134 763,140 750,146" fill="#f59e0b"/>
  <rect x="765" y="80" width="100" height="120" rx="14" fill="#0f172a"/>
  <text x="815" y="130" text-anchor="middle" fill="#fff" font-family="sans-serif" font-size="14" font-weight="700">学生</text>
  <text x="815" y="155" text-anchor="middle" fill="#fff" font-family="sans-serif" font-size="14" font-weight="700">受益</text>
  <text x="815" y="180" text-anchor="middle" fill="#22c55e" font-family="sans-serif" font-size="12">就业↑</text>
  <rect x="200" y="235" width="500" height="20" rx="6" fill="#f0fdf4"/>
  <text x="450" y="249" text-anchor="middle" fill="#166534" font-family="sans-serif" font-size="11">核心理念：为教师提供工具和数据，让教学更贴近市场</text>
</svg>