<svg xmlns="http://www.w3.org/2000/svg" width="900" height="340" viewBox="0 0 900 340">
  <text x="450" y="35" text-anchor="middle" fill="#0f172a" font-family="sans-serif" font-size="16" font-weight="700">投入产出分析：低成本试点 + 可量化收益</text>
  <!-- 投入 -->
  <rect x="30" y="60" width="200" height="250" rx="14" fill="#fef3c7" stroke="#f59e0b" stroke-width="2"/>
  <text x="130" y="95" text-anchor="middle" fill="#92400e" font-family="sans-serif" font-size="15" font-weight="700">学校投入</text>
  <rect x="50" y="115" width="160" height="35" rx="6" fill="#fff" stroke="#fde68a"/>
  <text x="130" y="137" text-anchor="middle" fill="#78350f" font-family="sans-serif" font-size="11">组织学生参与试点</text>
  <rect x="50" y="160" width="160" height="35" rx="6" fill="#fff" stroke="#fde68a"/>
  <text x="130" y="182" text-anchor="middle" fill="#78350f" font-family="sans-serif" font-size="11">提供基础数据对接</text>
  <rect x="50" y="205" width="160" height="35" rx="6" fill="#fff" stroke="#fde68a"/>
  <text x="130" y="227" text-anchor="middle" fill="#78350f" font-family="sans-serif" font-size="11">配合宣传推广</text>
  <rect x="50" y="260" width="160" height="35" rx="6" fill="#f0fdf4"/>
  <text x="130" y="282" text-anchor="middle" fill="#166534" font-family="sans-serif" font-size="11" font-weight="600">无需大量资金投入</text>
  <!-- 箭头 -->
  <path d="M235 185 L285 185" stroke="#2563eb" stroke-width="3"/>
  <polygon points="280,178 295,185 280,192" fill="#2563eb"/>
  <!-- 产出 -->
  <rect x="300" y="60" width="570" height="250" rx="14" fill="#f0fdf4" stroke="#22c55e" stroke-width="2"/>
  <text x="585" y="90" text-anchor="middle" fill="#166534" font-family="sans-serif" font-size="15" font-weight="700">学校收益</text>
  <rect x="320" y="110" width="160" height="100" rx="10" fill="#fff" stroke="#22c55e"/>
  <text x="400" y="135" text-anchor="middle" fill="#166534" font-family="sans-serif" font-size="13" font-weight="700">短期可见</text>
  <text x="400" y="158" text-anchor="middle" fill="#64748b" font-family="sans-serif" font-size="10">学生参与数据</text>
  <text x="400" y="176" text-anchor="middle" fill="#64748b" font-family="sans-serif" font-size="10">任务完成量</text>
  <text x="400" y="194" text-anchor="middle" fill="#64748b" font-family="sans-serif" font-size="10">企业好评反馈</text>
  <rect x="500" y="110" width="160" height="100" rx="10" fill="#fff" stroke="#3b82f6"/>
  <text x="580" y="135" text-anchor="middle" fill="#1e40af" font-family="sans-serif" font-size="13" font-weight="700">中期可验证</text>
  <text x="580" y="158" text-anchor="middle" fill="#64748b" font-family="sans-serif" font-size="10">就业率+15-25%</text>
  <text x="580" y="176" text-anchor="middle" fill="#64748b" font-family="sans-serif" font-size="10">起薪+20-40%</text>
  <text x="580" y="194" text-anchor="middle" fill="#64748b" font-family="sans-serif" font-size="10">企业认可度提升</text>
  <rect x="680" y="110" width="170" height="100" rx="10" fill="#fff" stroke="#7c3aed"/>
  <text x="765" y="135" text-anchor="middle" fill="#6d28d9" font-family="sans-serif" font-size="13" font-weight="700">长期价值</text>
  <text x="765" y="158" text-anchor="middle" fill="#64748b" font-family="sans-serif" font-size="10">品牌差异化</text>
  <text x="765" y="176" text-anchor="middle" fill="#64748b" font-family="sans-serif" font-size="10">产教融合标杆</text>
  <text x="765" y="194" text-anchor="middle" fill="#64748b" font-family="sans-serif" font-size="10">社会影响力</text>
  <!-- 里程碑 -->
  <text x="585" y="240" text-anchor="middle" fill="#0f172a" font-family="sans-serif" font-size="12" font-weight="600">关键里程碑</text>
  <rect x="320" y="255" width="100" height="22" rx="6" fill="#dbeafe"/>
  <text x="370" y="270" text-anchor="middle" fill="#1e40af" font-family="sans-serif" font-size="10">M3 MVP上线</text>
  <rect x="430" y="255" width="100" height="22" rx="6" fill="#dbeafe"/>
  <text x="480" y="270" text-anchor="middle" fill="#1e40af" font-family="sans-serif" font-size="10">M6 首批验证</text>
  <rect x="540" y="255" width="100" height="22" rx="6" fill="#dbeafe"/>
  <text x="590" y="270" text-anchor="middle" fill="#1e40af" font-family="sans-serif" font-size="10">M9 200活跃</text>
  <rect x="650" y="255" width="100" height="22" rx="6" fill="#dbeafe"/>
  <text x="700" y="270" text-anchor="middle" fill="#1e40af" font-family="sans-serif" font-size="10">M12 企业验证</text>
  <rect x="760" y="255" width="90" height="22" rx="6" fill="#dbeafe"/>
  <text x="805" y="270" text-anchor="middle" fill="#1e40af" font-family="sans-serif" font-size="10">M24 生态</text>
</svg>