<svg xmlns="http://www.w3.org/2000/svg" width="900" height="300" viewBox="0 0 900 300">
  <text x="450" y="30" text-anchor="middle" fill="#0f172a" font-family="sans-serif" font-size="16" font-weight="700">学：AI能力感知系统</text>
  <!-- 数据输入 -->
  <rect x="30" y="60" width="200" height="200" rx="14" fill="#eff6ff" stroke="#3b82f6" stroke-width="2"/>
  <text x="130" y="90" text-anchor="middle" fill="#1e40af" font-family="sans-serif" font-size="14" font-weight="700">数据输入</text>
  <rect x="50" y="105" width="160" height="28" rx="6" fill="#fff" stroke="#bfdbfe"/>
  <text x="130" y="124" text-anchor="middle" fill="#1e40af" font-family="sans-serif" font-size="11">课程作业</text>
  <rect x="50" y="140" width="160" height="28" rx="6" fill="#fff" stroke="#bfdbfe"/>
  <text x="130" y="159" text-anchor="middle" fill="#1e40af" font-family="sans-serif" font-size="11">代码仓库 GitHub</text>
  <rect x="50" y="175" width="160" height="28" rx="6" fill="#fff" stroke="#bfdbfe"/>
  <text x="130" y="194" text-anchor="middle" fill="#1e40af" font-family="sans-serif" font-size="11">设计作品集</text>
  <rect x="50" y="210" width="160" height="28" rx="6" fill="#fff" stroke="#bfdbfe"/>
  <text x="130" y="229" text-anchor="middle" fill="#1e40af" font-family="sans-serif" font-size="11">任务记录 + 反馈</text>
  <!-- 箭头 -->
  <path d="M235 160 L295 160" stroke="#2563eb" stroke-width="2.5"/>
  <polygon points="290,154 303,160 290,166" fill="#2563eb"/>
  <!-- LLM分析 -->
  <rect x="305" y="80" width="180" height="160" rx="14" fill="#f0fdf4" stroke="#22c55e" stroke-width="2"/>
  <text x="395" y="115" text-anchor="middle" fill="#166534" font-family="sans-serif" font-size="14" font-weight="700">大模型分析引擎</text>
  <rect x="325" y="130" width="140" height="28" rx="6" fill="#fff" stroke="#bbf7d0"/>
  <text x="395" y="149" text-anchor="middle" fill="#166534" font-family="sans-serif" font-size="11">GPT / Claude</text>
  <rect x="325" y="165" width="140" height="28" rx="6" fill="#fff" stroke="#bbf7d0"/>
  <text x="395" y="184" text-anchor="middle" fill="#166534" font-family="sans-serif" font-size="11">多模型交叉验证</text>
  <rect x="325" y="200" width="140" height="28" rx="6" fill="#fff" stroke="#bbf7d0"/>
  <text x="395" y="219" text-anchor="middle" fill="#166534" font-family="sans-serif" font-size="11">可解释评估</text>
  <!-- 箭头 -->
  <path d="M490 160 L550 160" stroke="#22c55e" stroke-width="2.5"/>
  <polygon points="545,154 558,160 545,166" fill="#22c55e"/>
  <!-- 输出 -->
  <rect x="560" y="60" width="310" height="200" rx="14" fill="#fef3c7" stroke="#f59e0b" stroke-width="2"/>
  <text x="715" y="90" text-anchor="middle" fill="#92400e" font-family="sans-serif" font-size="14" font-weight="700">输出</text>
  <rect x="580" y="105" width="130" height="35" rx="6" fill="#fff" stroke="#fde68a"/>
  <text x="645" y="127" text-anchor="middle" fill="#78350f" font-family="sans-serif" font-size="11">技能矩阵</text>
  <rect x="720" y="105" width="130" height="35" rx="6" fill="#fff" stroke="#fde68a"/>
  <text x="785" y="127" text-anchor="middle" fill="#78350f" font-family="sans-serif" font-size="11">成长轨迹</text>
  <rect x="580" y="150" width="130" height="35" rx="6" fill="#fff" stroke="#fde68a"/>
  <text x="645" y="172" text-anchor="middle" fill="#78350f" font-family="sans-serif" font-size="11">缺口分析</text>
  <rect x="720" y="150" width="130" height="35" rx="6" fill="#fff" stroke="#fde68a"/>
  <text x="785" y="172" text-anchor="middle" fill="#78350f" font-family="sans-serif" font-size="11">AI能力叙事</text>
  <rect x="580" y="200" width="270" height="40" rx="8" fill="#f0fdf4" stroke="#22c55e"/>
  <text x="715" y="218" text-anchor="middle" fill="#166534" font-family="sans-serif" font-size="11" font-weight="600">动态更新：每次任务自动刷新能力画像</text>
  <text x="715" y="233" text-anchor="middle" fill="#166534" font-family="sans-serif" font-size="10">基于证据，非自述 | 多维比较 | 可解释</text>
</svg>