<svg xmlns="http://www.w3.org/2000/svg" width="960" height="400" viewBox="0 0 960 400">
  <text x="480" y="30" text-anchor="middle" fill="#0f172a" font-family="sans-serif" font-size="16" font-weight="700">三阶段实施路线图</text>
  <!-- Phase 1 -->
  <rect x="20" y="55" width="290" height="320" rx="16" fill="#eff6ff" stroke="#3b82f6" stroke-width="2"/>
  <rect x="20" y="55" width="290" height="45" rx="16" fill="#2563eb"/>
  <rect x="20" y="80" width="290" height="20" fill="#2563eb"/>
  <text x="165" y="83" text-anchor="middle" fill="#fff" font-family="sans-serif" font-size="14" font-weight="700">Phase 1 试点期（0-12月）</text>
  <text x="40" y="120" fill="#1e40af" font-family="sans-serif" font-size="12" font-weight="600">目标</text>
  <text x="40" y="140" fill="#64748b" font-family="sans-serif" font-size="11">· 1-2个专业试点</text>
  <text x="40" y="158" fill="#64748b" font-family="sans-serif" font-size="11">· 200学生参与</text>
  <text x="40" y="176" fill="#64748b" font-family="sans-serif" font-size="11">· 能力体检上线</text>
  <text x="40" y="206" fill="#1e40af" font-family="sans-serif" font-size="12" font-weight="600">学校工作</text>
  <text x="40" y="226" fill="#64748b" font-family="sans-serif" font-size="11">· 组织学生注册</text>
  <text x="40" y="244" fill="#64748b" font-family="sans-serif" font-size="11">· 提供课程数据</text>
  <text x="40" y="262" fill="#64748b" font-family="sans-serif" font-size="11">· 配合宣传推广</text>
  <text x="40" y="292" fill="#1e40af" font-family="sans-serif" font-size="12" font-weight="600">预期成果</text>
  <text x="40" y="312" fill="#22c55e" font-family="sans-serif" font-size="11">· 学生能力画像生成</text>
  <text x="40" y="330" fill="#22c55e" font-family="sans-serif" font-size="11">· 首批任务完成验证</text>
  <text x="40" y="348" fill="#22c55e" font-family="sans-serif" font-size="11">· 营收500万</text>
  <!-- Phase 2 -->
  <rect x="335" y="55" width="290" height="320" rx="16" fill="#f0fdf4" stroke="#22c55e" stroke-width="2"/>
  <rect x="335" y="55" width="290" height="45" rx="16" fill="#16a34a"/>
  <rect x="335" y="80" width="290" height="20" fill="#16a34a"/>
  <text x="480" y="83" text-anchor="middle" fill="#fff" font-family="sans-serif" font-size="14" font-weight="700">Phase 2 扩展期（6-18月）</text>
  <text x="355" y="120" fill="#166534" font-family="sans-serif" font-size="12" font-weight="600">目标</text>
  <text x="355" y="140" fill="#64748b" font-family="sans-serif" font-size="11">· 全校推广</text>
  <text x="355" y="158" fill="#64748b" font-family="sans-serif" font-size="11">· 1000+学生活跃</text>
  <text x="355" y="176" fill="#64748b" font-family="sans-serif" font-size="11">· 企业对接深化</text>
  <text x="355" y="206" fill="#166534" font-family="sans-serif" font-size="12" font-weight="600">学校工作</text>
  <text x="355" y="226" fill="#64748b" font-family="sans-serif" font-size="11">· 纳入就业指导体系</text>
  <text x="355" y="244" fill="#64748b" font-family="sans-serif" font-size="11">· 对接本地企业资源</text>
  <text x="355" y="262" fill="#64748b" font-family="sans-serif" font-size="11">· 定期数据复盘</text>
  <text x="355" y="292" fill="#166534" font-family="sans-serif" font-size="12" font-weight="600">预期成果</text>
  <text x="355" y="312" fill="#22c55e" font-family="sans-serif" font-size="11">· 就业率提升可见</text>
  <text x="355" y="330" fill="#22c55e" font-family="sans-serif" font-size="11">· 产教融合案例形成</text>
  <text x="355" y="348" fill="#22c55e" font-family="sans-serif" font-size="11">· 营收5000万</text>
  <!-- Phase 3 -->
  <rect x="650" y="55" width="290" height="320" rx="16" fill="#fef3c7" stroke="#f59e0b" stroke-width="2"/>
  <rect x="650" y="55" width="290" height="45" rx="16" fill="#d97706"/>
  <rect x="650" y="80" width="290" height="20" fill="#d97706"/>
  <text x="795" y="83" text-anchor="middle" fill="#fff" font-family="sans-serif" font-size="14" font-weight="700">Phase 3 深度期（12-24月）</text>
  <text x="670" y="120" fill="#92400e" font-family="sans-serif" font-size="12" font-weight="600">目标</text>
  <text x="670" y="140" fill="#64748b" font-family="sans-serif" font-size="11">· 能力护照认证中心</text>
  <text x="670" y="158" fill="#64748b" font-family="sans-serif" font-size="11">· 区域标杆学校</text>
  <text x="670" y="176" fill="#64748b" font-family="sans-serif" font-size="11">· 课程体系优化</text>
  <text x="670" y="206" fill="#92400e" font-family="sans-serif" font-size="12" font-weight="600">学校工作</text>
  <text x="670" y="226" fill="#64748b" font-family="sans-serif" font-size="11">· 学分体系对接</text>
  <text x="670" y="244" fill="#64748b" font-family="sans-serif" font-size="11">· 教师培训体系</text>
  <text x="670" y="262" fill="#64748b" font-family="sans-serif" font-size="11">· 品牌宣传推广</text>
  <text x="670" y="292" fill="#92400e" font-family="sans-serif" font-size="12" font-weight="600">预期成果</text>
  <text x="670" y="312" fill="#22c55e" font-family="sans-serif" font-size="11">· 差异化品牌形成</text>
  <text x="670" y="330" fill="#22c55e" font-family="sans-serif" font-size="11">· 上级认可·社会影响</text>
  <text x="670" y="348" fill="#22c55e" font-family="sans-serif" font-size="11">· 营收3亿</text>
  <!-- 连接箭头 -->
  <path d="M315 215 L330 215" stroke="#64748b" stroke-width="2"/>
  <polygon points="325,210 335,215 325,220" fill="#64748b"/>
  <path d="M630 215 L645 215" stroke="#64748b" stroke-width="2"/>
  <polygon points="640,210 650,215 640,220" fill="#64748b"/>
</svg>