<svg xmlns="http://www.w3.org/2000/svg" width="900" height="300" viewBox="0 0 900 300">
  <text x="450" y="30" text-anchor="middle" fill="#0f172a" font-family="sans-serif" font-size="16" font-weight="700">竞争壁垒：三层递进</text>
  <!-- 短期 -->
  <rect x="30" y="60" width="250" height="210" rx="14" fill="#eff6ff" stroke="#3b82f6" stroke-width="2"/>
  <rect x="30" y="60" width="250" height="40" rx="14" fill="#2563eb"/>
  <rect x="30" y="85" width="250" height="15" fill="#2563eb"/>
  <text x="155" y="85" text-anchor="middle" fill="#fff" font-family="sans-serif" font-size="13" font-weight="700">短期 0-12月</text>
  <text x="155" y="120" text-anchor="middle" fill="#1e40af" font-family="sans-serif" font-size="14" font-weight="700">数据飞轮</text>
  <text x="155" y="148" text-anchor="middle" fill="#64748b" font-family="sans-serif" font-size="11">更多任务</text>
  <text x="155" y="168" text-anchor="middle" fill="#64748b" font-family="sans-serif" font-size="11">→ 更多数据</text>
  <text x="155" y="188" text-anchor="middle" fill="#64748b" font-family="sans-serif" font-size="11">→ 更好匹配</text>
  <text x="155" y="208" text-anchor="middle" fill="#64748b" font-family="sans-serif" font-size="11">→ 更多任务</text>
  <rect x="60" y="225" width="190" height="30" rx="6" fill="#dbeafe"/>
  <text x="155" y="245" text-anchor="middle" fill="#1e40af" font-family="sans-serif" font-size="11">6-12月见效</text>
  <!-- 箭头 -->
  <path d="M285 165 L325 165" stroke="#64748b" stroke-width="2"/>
  <polygon points="320,159 333,165 320,171" fill="#64748b"/>
  <!-- 中期 -->
  <rect x="330" y="60" width="250" height="210" rx="14" fill="#f0fdf4" stroke="#22c55e" stroke-width="2"/>
  <rect x="330" y="60" width="250" height="40" rx="14" fill="#16a34a"/>
  <rect x="330" y="85" width="250" height="15" fill="#16a34a"/>
  <text x="455" y="85" text-anchor="middle" fill="#fff" font-family="sans-serif" font-size="13" font-weight="700">中期 12-24月</text>
  <text x="455" y="120" text-anchor="middle" fill="#166534" font-family="sans-serif" font-size="14" font-weight="700">网络效应</text>
  <text x="455" y="148" text-anchor="middle" fill="#64748b" font-family="sans-serif" font-size="11">能力护照被更多企业认可</text>
  <text x="455" y="168" text-anchor="middle" fill="#64748b" font-family="sans-serif" font-size="11">双边网络效应</text>
  <text x="455" y="188" text-anchor="middle" fill="#64748b" font-family="sans-serif" font-size="11">竞品难以复制</text>
  <rect x="360" y="225" width="190" height="30" rx="6" fill="#dcfce7"/>
  <text x="455" y="245" text-anchor="middle" fill="#166534" font-family="sans-serif" font-size="11">12-24月见效</text>
  <!-- 箭头 -->
  <path d="M585 165 L625 165" stroke="#64748b" stroke-width="2"/>
  <polygon points="620,159 633,165 620,171" fill="#64748b"/>
  <!-- 长期 -->
  <rect x="630" y="60" width="250" height="210" rx="14" fill="#fef3c7" stroke="#f59e0b" stroke-width="2"/>
  <rect x="630" y="60" width="250" height="40" rx="14" fill="#d97706"/>
  <rect x="630" y="85" width="250" height="15" fill="#d97706"/>
  <text x="755" y="85" text-anchor="middle" fill="#fff" font-family="sans-serif" font-size="13" font-weight="700">长期 24月+</text>
  <text x="755" y="120" text-anchor="middle" fill="#92400e" font-family="sans-serif" font-size="14" font-weight="700">生态嵌入</text>
  <text x="755" y="148" text-anchor="middle" fill="#64748b" font-family="sans-serif" font-size="11">高校学分体系</text>
  <text x="755" y="168" text-anchor="middle" fill="#64748b" font-family="sans-serif" font-size="11">企业校招流程</text>
  <text x="755" y="188" text-anchor="middle" fill="#64748b" font-family="sans-serif" font-size="11">政府人才参考</text>
  <rect x="660" y="225" width="190" height="30" rx="6" fill="#fef9c3"/>
  <text x="755" y="245" text-anchor="middle" fill="#92400e" font-family="sans-serif" font-size="11">= 基础设施，难替代</text>
  <!-- 底部 -->
  <rect x="300" y="280" width="300" height="18" rx="6" fill="#0f172a"/>
  <text x="450" y="293" text-anchor="middle" fill="#fff" font-family="sans-serif" font-size="11" font-weight="600">竞品复制时间估算：8-10年</text>
</svg>