<svg xmlns="http://www.w3.org/2000/svg" width="960" height="420" viewBox="0 0 960 420">
  <defs><linearGradient id="lg" x1="0%" y1="0%" x2="100%" y2="0%"><stop offset="0%" stop-color="#64748b"/><stop offset="100%" stop-color="#22c55e"/></linearGradient></defs>
  <text x="120" y="25" text-anchor="middle" fill="#64748b" font-family="sans-serif" font-size="12" font-weight="600">核心问题</text>
  <text x="460" y="25" text-anchor="middle" fill="#64748b" font-family="sans-serif" font-size="12" font-weight="600">解决方案</text>
  <text x="790" y="25" text-anchor="middle" fill="#64748b" font-family="sans-serif" font-size="12" font-weight="600">预期收益</text>
  <!-- Q1 -->
  <rect x="20" y="40" width="200" height="42" rx="6" fill="#fef2f2" stroke="#f87171"/>
  <text x="120" y="66" text-anchor="middle" fill="#991b1b" font-family="sans-serif" font-size="12">Q1 就业率与质量</text>
  <line x1="225" y1="61" x2="360" y2="61" stroke="url(#lg)" stroke-width="2"/>
  <rect x="365" y="40" width="190" height="42" rx="6" fill="#f0fdf4" stroke="#22c55e"/>
  <text x="460" y="66" text-anchor="middle" fill="#166534" font-family="sans-serif" font-size="12">能力护照+闭环追踪</text>
  <line x1="560" y1="61" x2="690" y2="61" stroke="#22c55e" stroke-width="2"/>
  <rect x="695" y="40" width="190" height="42" rx="6" fill="#eff6ff" stroke="#3b82f6"/>
  <text x="790" y="66" text-anchor="middle" fill="#1e40af" font-family="sans-serif" font-size="12">就业率+15-25%</text>
  <!-- Q2 -->
  <rect x="20" y="92" width="200" height="42" rx="6" fill="#fef2f2" stroke="#f87171"/>
  <text x="120" y="118" text-anchor="middle" fill="#991b1b" font-family="sans-serif" font-size="12">Q2 课程响应速度</text>
  <line x1="225" y1="113" x2="360" y2="113" stroke="url(#lg)" stroke-width="2"/>
  <rect x="365" y="92" width="190" height="42" rx="6" fill="#f0fdf4" stroke="#22c55e"/>
  <text x="460" y="118" text-anchor="middle" fill="#166534" font-family="sans-serif" font-size="12">自适应学习路径</text>
  <line x1="560" y1="113" x2="690" y2="113" stroke="#22c55e" stroke-width="2"/>
  <rect x="695" y="92" width="190" height="42" rx="6" fill="#eff6ff" stroke="#3b82f6"/>
  <text x="790" y="118" text-anchor="middle" fill="#1e40af" font-family="sans-serif" font-size="12">动态补充课程体系</text>
  <!-- Q3 -->
  <rect x="20" y="144" width="200" height="42" rx="6" fill="#fef2f2" stroke="#f87171"/>
  <text x="120" y="170" text-anchor="middle" fill="#991b1b" font-family="sans-serif" font-size="12">Q3 产教融合落地</text>
  <line x1="225" y1="165" x2="360" y2="165" stroke="url(#lg)" stroke-width="2"/>
  <rect x="365" y="144" width="190" height="42" rx="6" fill="#f0fdf4" stroke="#22c55e"/>
  <text x="460" y="170" text-anchor="middle" fill="#166534" font-family="sans-serif" font-size="12">任务市场</text>
  <line x1="560" y1="165" x2="690" y2="165" stroke="#22c55e" stroke-width="2"/>
  <rect x="695" y="144" width="190" height="42" rx="6" fill="#eff6ff" stroke="#3b82f6"/>
  <text x="790" y="170" text-anchor="middle" fill="#1e40af" font-family="sans-serif" font-size="12">所有学生平等受益</text>
  <!-- Q4 -->
  <rect x="20" y="196" width="200" height="42" rx="6" fill="#fef2f2" stroke="#f87171"/>
  <text x="120" y="222" text-anchor="middle" fill="#991b1b" font-family="sans-serif" font-size="12">Q4 能力对接市场</text>
  <line x1="225" y1="217" x2="360" y2="217" stroke="url(#lg)" stroke-width="2"/>
  <rect x="365" y="196" width="190" height="42" rx="6" fill="#f0fdf4" stroke="#22c55e"/>
  <text x="460" y="222" text-anchor="middle" fill="#166534" font-family="sans-serif" font-size="12">AI能力指纹</text>
  <line x1="560" y1="217" x2="690" y2="217" stroke="#22c55e" stroke-width="2"/>
  <rect x="695" y="196" width="190" height="42" rx="6" fill="#eff6ff" stroke="#3b82f6"/>
  <text x="790" y="222" text-anchor="middle" fill="#1e40af" font-family="sans-serif" font-size="12">精准缺口分析</text>
  <!-- Q5 -->
  <rect x="20" y="248" width="200" height="42" rx="6" fill="#fef2f2" stroke="#f87171"/>
  <text x="120" y="274" text-anchor="middle" fill="#991b1b" font-family="sans-serif" font-size="12">Q5 师资适应AI</text>
  <line x1="225" y1="269" x2="360" y2="269" stroke="url(#lg)" stroke-width="2"/>
  <rect x="365" y="248" width="190" height="42" rx="6" fill="#f0fdf4" stroke="#22c55e"/>
  <text x="460" y="274" text-anchor="middle" fill="#166534" font-family="sans-serif" font-size="12">教师工具+市场数据</text>
  <line x1="560" y1="269" x2="690" y2="269" stroke="#22c55e" stroke-width="2"/>
  <rect x="695" y="248" width="190" height="42" rx="6" fill="#eff6ff" stroke="#3b82f6"/>
  <text x="790" y="274" text-anchor="middle" fill="#1e40af" font-family="sans-serif" font-size="12">数据驱动教学改进</text>
  <!-- Q6 -->
  <rect x="20" y="300" width="200" height="42" rx="6" fill="#fef2f2" stroke="#f87171"/>
  <text x="120" y="326" text-anchor="middle" fill="#991b1b" font-family="sans-serif" font-size="12">Q6 差异化竞争</text>
  <line x1="225" y1="321" x2="360" y2="321" stroke="url(#lg)" stroke-width="2"/>
  <rect x="365" y="300" width="190" height="42" rx="6" fill="#f0fdf4" stroke="#22c55e"/>
  <text x="460" y="326" text-anchor="middle" fill="#166534" font-family="sans-serif" font-size="12">能力护照品牌</text>
  <line x1="560" y1="321" x2="690" y2="321" stroke="#22c55e" stroke-width="2"/>
  <rect x="695" y="300" width="190" height="42" rx="6" fill="#eff6ff" stroke="#3b82f6"/>
  <text x="790" y="326" text-anchor="middle" fill="#1e40af" font-family="sans-serif" font-size="12">独特品牌标签</text>
  <!-- Q7 -->
  <rect x="20" y="352" width="200" height="42" rx="6" fill="#fef2f2" stroke="#f87171"/>
  <text x="120" y="378" text-anchor="middle" fill="#991b1b" font-family="sans-serif" font-size="12">Q7 风险与收益</text>
  <line x1="225" y1="373" x2="360" y2="373" stroke="url(#lg)" stroke-width="2"/>
  <rect x="365" y="352" width="190" height="42" rx="6" fill="#f0fdf4" stroke="#22c55e"/>
  <text x="460" y="378" text-anchor="middle" fill="#166534" font-family="sans-serif" font-size="12">低成本试点+里程碑</text>
  <line x1="560" y1="373" x2="690" y2="373" stroke="#22c55e" stroke-width="2"/>
  <rect x="695" y="352" width="190" height="42" rx="6" fill="#eff6ff" stroke="#3b82f6"/>
  <text x="790" y="378" text-anchor="middle" fill="#1e40af" font-family="sans-serif" font-size="12">可验证·可汇报</text>
</svg>